<svg xmlns="http://www.w3.org/2000/svg" version="1.1" xmlns:xlink="http://www.w3.org/1999/xlink" xmlns:svgjs="http://svgjs.dev/svgjs" width="100%" height="100%" viewBox="0 0 1000 600"><rect width="1000" height="600" x="0" y="0" fill="#ffffff"/><g><rect width="333.3333333333333" height="333.3333333333333" y="523.9225752379339" fill="#2b2b2b" transform="matrix(0.24915268717515757,0,0,0.24915268717515757,0,127.93783976595452)" x="501.70050048828125"/><path d="M640.7332525558744 765.5892150886024L622.727300720059 765.5892150886024L622.727300720059 615.5892196299085L714.007059861292 615.5892196299085L714.007059861292 630.3808858487519L640.7332525558744 630.3808858487519L640.7332525558744 683.0892175863207L703.0844411443593 683.0892175863207L703.0844411443593 697.6725504781382L640.7332525558744 697.6725504781382L640.7332525558744 765.5892150886024Z " fill="#ffffff" transform="matrix(0.24915268717515757,0,0,0.24915268717515757,0,127.93783976595452)"/><path d="M935.4704569174048 763.158003475071L918.3671780536239 763.158003475071L918.3671780536239 620.6777960809284L1005.0709074341469 620.6777960809284L1005.0709074341469 634.7279276434062L935.4704569174048 634.7279276434062L935.4704569174048 684.7938894082926L994.6958605862003 684.7938894082926L994.6958605862003 698.6461317938342L935.4704569174048 698.6461317938342L935.4704569174048 763.158003475071ZM1052.7056593109585 765.5892133631457L1052.7056593109585 765.5892133631457Q1040.29518092881 765.5892133631457 1031.9555656150653 761.2356514705468Q1023.5876804189015 756.8538196955286 1019.5168173504974 749.6167297961435Q1015.4459542820932 742.407909779178 1015.4459542820932 733.8421354060778L1015.4459542820932 733.8421354060778Q1015.4459542820932 723.4670885581313 1020.8455018242125 716.2299986587462Q1026.2450493663318 709.0211786417807 1036.111238330728 705.2612842799908Q1045.977427295124 701.4731200357814 1059.433891326793 701.4731200357814L1059.433891326793 701.4731200357814L1086.4881688022283 701.4731200357814Q1086.4881688022283 691.9178997779997 1083.5481010306032 685.5006364687794Q1080.5797633765585 679.0833731595591 1074.9823266575029 675.8323366813197Q1069.3848899384473 672.5813002030803 1061.0452746247029 672.5813002030803L1061.0452746247029 672.5813002030803Q1051.2921651899849 672.5813002030803 1044.1681548202776 677.471989861649Q1037.0441444505705 682.3626795202179 1035.4044912702411 691.9178997779997L1035.4044912702411 691.9178997779997L1017.9054340525875 691.9178997779997Q1019.1210389966247 680.9209155168248 1025.3404131289087 673.4859364405035Q1031.5315173787733 666.0792272466016 1041.1150075189746 662.0931738254559Q1050.6702277767563 658.1353902867297 1061.0452746247029 658.1353902867297L1061.0452746247029 658.1353902867297Q1075.293295364117 658.1353902867297 1084.7637059746405 663.3087787694933Q1094.234116585164 668.5104371346763 1098.8986471843768 677.7829585682633Q1103.5914476660093 687.027210119431 1103.5914476660093 699.6638475609352L1103.5914476660093 699.6638475609352L1103.5914476660093 763.158003475071L1088.3257111594942 763.158003475071L1087.307995392393 745.037008844189L1087.307995392393 745.037008844189Q1085.272563858191 749.3057610895294 1082.10633702721 753.0939253337388Q1078.9683800786486 756.8538196955286 1074.7844374805666 759.5959982902175Q1070.6287647649042 762.3381768849063 1065.116137693107 763.9778300652357Q1059.6317805037293 765.5892133631457 1052.7056593109585 765.5892133631457ZM1055.3630282583888 751.1433034467951L1055.3630282583888 751.1433034467951Q1062.4870386280961 751.1433034467951 1068.2823645240878 748.2032356751699Q1074.0776904200798 745.2348980211252 1078.148553488484 740.0615095383619Q1082.219416556888 734.8598511731789 1084.367927620768 728.5556673936364Q1086.4881688022283 722.251483614094 1086.4881688022283 715.3253624213231L1086.4881688022283 715.3253624213231L1086.4881688022283 714.7034250080947L1060.8473854477666 714.7034250080947Q1050.8681169536926 714.7034250080947 1044.7618223510865 717.049825248911Q1038.6555277484804 719.3962254897272 1036.0264286834695 723.5801680878092Q1033.369059736039 727.7358408034717 1033.369059736039 733.0223088159131L1033.369059736039 733.0223088159131Q1033.369059736039 738.5349358877103 1035.9133491537916 742.6057989561143Q1038.457638571544 746.6766620245185 1043.4331378773713 748.9099827356567Q1048.436907065618 751.1433034467951 1055.3630282583888 751.1433034467951ZM1168.7252567604746 765.5892133631457L1168.7252567604746 765.5892133631457Q1156.1168892013898 765.5892133631457 1146.5333990611884 761.3204611178053Q1136.9781788034068 757.0517088724649 1131.3807420843511 749.4188406192072Q1125.7833053652955 741.7859723659496 1124.5677004212582 731.4109255180031L1124.5677004212582 731.4109255180031L1142.066757638912 731.4109255180031Q1143.0844734060129 736.6973935304445 1146.3355098842521 741.1640349527213Q1149.5865463624916 745.6589462574174 1155.1839830815472 748.4011248521062Q1160.7814198006029 751.1433034467951 1168.923145937411 751.1433034467951L1168.923145937411 751.1433034467951Q1176.047156307118 751.1433034467951 1180.7399567887505 749.0230622653346Q1185.4044873879636 746.8745512014548 1187.7508876287798 743.1994664869233Q1190.0972878695961 739.5526516548113 1190.0972878695961 735.2838994094709L1190.0972878695961 735.2838994094709Q1190.0972878695961 728.951445747509 1187.1572200979708 725.7004092692696Q1184.1888824439263 722.4493727910303 1178.5066360776123 720.5270207865061Q1172.7961198288788 718.5763988995625 1164.6543936920705 717.1629047785889L1164.6543936920705 717.1629047785889Q1157.926161676236 715.9472998345516 1151.4240887197573 713.9118683003495Q1144.9220157632785 711.8764367661474 1139.8334369277734 708.5123207582302Q1134.7448580922683 705.148204750313 1131.7765204382238 700.2575150917442Q1128.8364526665985 695.3668254331753 1128.8364526665985 688.2428150634682L1128.8364526665985 688.2428150634682Q1128.8364526665985 679.5074213958511 1133.416173618553 672.6943797327582Q1137.9958945705077 665.8530681872458 1146.3355098842521 662.0083641781976Q1154.6751251979967 658.1353902867297 1165.869998636108 658.1353902867297L1165.869998636108 658.1353902867297Q1182.3513400866605 658.1353902867297 1192.5284977576707 666.0792272466016Q1202.705655428681 673.9947943240539 1204.5431977859466 689.0626416536329L1204.5431977859466 689.0626416536329L1187.6660779815213 689.0626416536329Q1186.6483622144203 681.3449637531169 1181.0509254953647 676.9631319780985Q1175.453488776309 672.5813002030803 1165.6721094591715 672.5813002030803L1165.6721094591715 672.5813002030803Q1156.1168892013898 672.5813002030803 1151.113120013143 676.454274094548Q1146.1376207073158 680.3272479860159 1146.1376207073158 686.6314317655583L1146.1376207073158 686.6314317655583Q1146.1376207073158 690.7022948339624 1148.8797993020048 693.8402517825239Q1151.6219778966936 697.0064786135048 1157.1346049684907 699.2397993246432Q1162.6189621578685 701.4731200357814 1170.364909940804 702.9148840391746L1170.364909940804 702.9148840391746Q1180.5420676118142 704.7524263964403 1188.8816829255588 707.8055736977434Q1197.2212982393032 710.8587209990465 1202.4229566044862 716.8519360719747Q1207.5963450872496 722.8451511449028 1207.5963450872496 733.8421354060778L1207.5963450872496 733.8421354060778Q1207.5963450872496 743.425625546279 1202.8187349583588 750.5496359159862Q1198.041124829468 757.6736462856933 1189.2774612794312 761.6314298244195Q1180.5420676118142 765.5892133631457 1168.7252567604746 765.5892133631457ZM1249.3226915383914 763.158003475071L1232.2194126746103 763.158003475071L1232.2194126746103 616.6069330125242L1249.3226915383914 616.6069330125242L1249.3226915383914 677.8677682155217L1249.3226915383914 677.8677682155217Q1254.4112703738965 668.7083263116126 1263.6837918074837 663.4218582991712Q1272.9280433586512 658.1353902867297 1283.925027619826 658.1353902867297L1283.925027619826 658.1353902867297Q1295.7418384711657 658.1353902867297 1304.4772321387827 662.9130004156207Q1313.2408956888194 667.6906105445115 1317.9336961704519 677.471989861649Q1322.5982267696647 687.2250992963673 1322.5982267696647 702.0950574490098L1322.5982267696647 702.0950574490098L1322.5982267696647 763.158003475071L1305.7211069652396 763.158003475071L1305.7211069652396 703.9325998062757Q1305.7211069652396 688.468974122824 1299.1907641263415 680.6099468102105Q1292.6886911698628 672.7791893800166 1280.2782127877142 672.7791893800166L1280.2782127877142 672.7791893800166Q1271.5145492376776 672.7791893800166 1264.5036183976483 677.047941625357Q1257.4644176751997 681.3449637531169 1253.3935546067955 689.2605308305692Q1249.3226915383914 697.2043677904411 1249.3226915383914 708.8232894648444L1249.3226915383914 708.8232894648444L1249.3226915383914 763.158003475071ZM1367.999657935338 763.158003475071L1350.896379071557 763.158003475071L1350.896379071557 660.5666001748044L1367.999657935338 660.5666001748044L1367.999657935338 763.158003475071ZM1359.4338835622377 638.7987907118104L1359.4338835622377 638.7987907118104Q1354.3453047267328 638.7987907118104 1351.0094586012349 635.434674703893Q1347.6453425933178 632.0705586959759 1347.6453425933178 626.9819798604708L1347.6453425933178 626.9819798604708Q1347.6453425933178 621.8934010249657 1351.0094586012349 618.7554440764042Q1354.3453047267328 615.5892172454232 1359.4338835622377 615.5892172454232L1359.4338835622377 615.5892172454232Q1364.3245732208068 615.5892172454232 1367.8017687584017 618.7554440764042Q1371.2506944135775 621.8934010249657 1371.2506944135775 626.9819798604708L1371.2506944135775 626.9819798604708Q1371.2506944135775 632.0705586959759 1367.8017687584017 635.434674703893Q1364.3245732208068 638.7987907118104 1359.4338835622377 638.7987907118104ZM1443.9042922316225 765.5892133631457L1443.9042922316225 765.5892133631457Q1429.6562714922081 765.5892133631457 1418.2635088771606 758.9740608769891Q1406.870746262113 752.3589083908324 1400.3686733056345 740.2593987152981Q1393.8383304667361 728.1598890397638 1393.8383304667361 712.0743259430837L1393.8383304667361 712.0743259430837Q1393.8383304667361 695.5929844925311 1400.453482952893 683.4652049345773Q1407.0686354390496 671.3656952590429 1418.574477583775 664.7505427728863Q1430.0803197285002 658.1353902867297 1444.3283404679144 658.1353902867297L1444.3283404679144 658.1353902867297Q1458.9721395612014 658.1353902867297 1470.2800925289905 664.7505427728863Q1481.5597756143602 671.3656952590429 1488.1749281005168 683.4652049345773Q1494.7900805866734 695.5929844925311 1494.7900805866734 711.8764367661474L1494.7900805866734 711.8764367661474Q1494.7900805866734 728.1598890397638 1488.0901184532584 740.2593987152981Q1481.361886437424 752.3589083908324 1469.9691238223763 758.9740608769891Q1458.5763612073288 765.5892133631457 1443.9042922316225 765.5892133631457ZM1444.1304512909783 750.9454142698588L1444.1304512909783 750.9454142698588Q1452.8658449585953 750.9454142698588 1460.4139035645944 746.5635824948405Q1467.9336922881744 742.1817507198223 1472.6264927698069 733.4463570522051Q1477.2910233690197 724.6826935021686 1477.2910233690197 711.8764367661474L1477.2910233690197 711.8764367661474Q1477.2910233690197 698.8440209707705 1472.711302417065 690.1934369504119Q1468.1315814651107 681.5428529300532 1460.6966023887892 677.1610211550349Q1453.2898931948873 672.7791893800166 1444.3283404679144 672.7791893800166L1444.3283404679144 672.7791893800166Q1435.7625660948142 672.7791893800166 1428.1296978415567 677.1610211550349Q1420.496829588299 681.5428529300532 1415.9171086363444 690.1934369504119Q1411.3373876843898 698.8440209707705 1411.3373876843898 711.8764367661474L1411.3373876843898 711.8764367661474Q1411.3373876843898 724.6826935021686 1415.9171086363444 733.4463570522051Q1420.496829588299 742.1817507198223 1427.9318086646203 746.5635824948405Q1435.3667877409416 750.9454142698588 1444.1304512909783 750.9454142698588ZM1535.9227595070063 763.158003475071L1518.8194806432252 763.158003475071L1518.8194806432252 660.5666001748044L1534.283106326677 660.5666001748044L1535.1029329168416 678.4897056287501L1535.1029329168416 678.4897056287501Q1539.9936225754104 668.9062154885489 1549.0399849496416 663.534937828849Q1558.1146172062925 658.1353902867297 1569.7052689982763 658.1353902867297L1569.7052689982763 658.1353902867297Q1581.7199690265522 658.1353902867297 1590.4553626941693 662.9130004156207Q1599.2190262442057 667.6906105445115 1604.1097159027747 677.3589103319712Q1609.0004055613433 687.027210119431 1609.0004055613433 701.8971682720735L1609.0004055613433 701.8971682720735L1609.0004055613433 763.158003475071L1591.8971266975625 763.158003475071L1591.8971266975625 703.7347106293394Q1591.8971266975625 688.2428150634682 1585.0840850344696 680.5251371629522Q1578.2427734889568 672.7791893800166 1565.8322951068085 672.7791893800166L1565.8322951068085 672.7791893800166Q1557.2947906161278 672.7791893800166 1550.566558600293 676.9631319780985Q1543.8665964668783 681.1188046937611 1539.8805430457326 688.9778320063745Q1535.9227595070063 696.8085894365685 1535.9227595070063 708.3992412285522L1535.9227595070063 708.3992412285522L1535.9227595070063 763.158003475071ZM1752.6962178995234 765.5892133631457L1752.6962178995234 765.5892133631457Q1731.9178543212108 765.5892133631457 1716.7651973443735 756.3449618119781Q1701.6125403675362 747.0724403783911 1693.470814230728 730.4780193981605Q1685.3290880939198 713.9118683003495 1685.3290880939198 691.9178997779997L1685.3290880939198 691.9178997779997Q1685.3290880939198 669.9239312556499 1693.470814230728 653.3577801578388Q1701.6125403675362 636.7633591776083 1716.7651973443735 627.4908377440213Q1731.9178543212108 618.2465861928537 1752.6962178995234 618.2465861928537L1752.6962178995234 618.2465861928537Q1777.1213963099478 618.2465861928537 1792.387132816463 629.8372379848375Q1807.6528693229786 641.4278897768213 1811.9216215683189 662.6020317090065L1811.9216215683189 662.6020317090065L1792.980800347272 662.6020317090065Q1789.7297638690327 649.3717267366932 1779.750495374959 641.3430801295628Q1769.7994967633044 633.2861636400132 1752.6962178995234 633.2861636400132L1752.6962178995234 633.2861636400132Q1737.6283705699445 633.2861636400132 1726.3204176021552 640.3253643624619Q1715.0407345167857 647.3362952024911 1708.9344399141796 660.481790527546Q1702.8281453115735 673.5990159701813 1702.8281453115735 691.9178997779997L1702.8281453115735 691.9178997779997Q1702.8281453115735 710.2367835858181 1708.9344399141796 723.3540090284534Q1715.0407345167857 736.4995043535082 1726.3204176021552 743.5104351935374Q1737.6283705699445 750.5496359159862 1752.6962178995234 750.5496359159862L1752.6962178995234 750.5496359159862Q1769.7994967633044 750.5496359159862 1779.750495374959 742.6906086033728Q1789.7297638690327 734.8598511731789 1792.980800347272 721.8274353778019L1792.980800347272 721.8274353778019L1811.9216215683189 721.8274353778019Q1807.6528693229786 742.407909779178 1792.387132816463 753.9985615711619Q1777.1213963099478 765.5892133631457 1752.6962178995234 765.5892133631457ZM1852.8281414292958 763.158003475071L1835.7248625655147 763.158003475071L1835.7248625655147 616.6069330125242L1852.8281414292958 616.6069330125242L1852.8281414292958 763.158003475071ZM1926.9235032507343 765.5892133631457L1926.9235032507343 765.5892133631457Q1912.6754825113196 765.5892133631457 1901.282719896272 758.9740608769891Q1889.8899572812247 752.3589083908324 1883.3596144423266 740.2593987152981Q1876.8575414858476 728.1598890397638 1876.8575414858476 712.0743259430837L1876.8575414858476 712.0743259430837Q1876.8575414858476 695.5929844925311 1883.4726939720044 683.4652049345773Q1890.087846458161 671.3656952590429 1901.5936886028865 664.7505427728863Q1913.0712608651922 658.1353902867297 1927.3192816046067 658.1353902867297L1927.3192816046067 658.1353902867297Q1941.991350580313 658.1353902867297 1953.2710336656826 664.7505427728863Q1964.578986633472 671.3656952590429 1971.1941391196285 683.4652049345773Q1977.8092916057851 695.5929844925311 1977.8092916057851 711.8764367661474L1977.8092916057851 711.8764367661474Q1977.8092916057851 728.1598890397638 1971.0810595899504 740.2593987152981Q1964.3810974565356 752.3589083908324 1952.988334841488 758.9740608769891Q1941.5673023440206 765.5892133631457 1926.9235032507343 765.5892133631457ZM1927.1213924276703 750.9454142698588L1927.1213924276703 750.9454142698588Q1935.8850559777068 750.9454142698588 1943.4048447012867 746.5635824948405Q1950.952903307286 742.1817507198223 1955.617433906499 733.4463570522051Q1960.3102343881312 724.6826935021686 1960.3102343881312 711.8764367661474L1960.3102343881312 711.8764367661474Q1960.3102343881312 698.8440209707705 1955.730513436177 690.1934369504119Q1951.150792484222 681.5428529300532 1943.7158134079007 677.1610211550349Q1936.2808343315794 672.7791893800166 1927.3192816046067 672.7791893800166L1927.3192816046067 672.7791893800166Q1918.7817771139257 672.7791893800166 1911.1489088606681 677.1610211550349Q1903.5160406074106 681.5428529300532 1898.9363196554561 690.1934369504119Q1894.3565987035013 698.8440209707705 1894.3565987035013 711.8764367661474L1894.3565987035013 711.8764367661474Q1894.3565987035013 724.6826935021686 1898.9363196554561 733.4463570522051Q1903.5160406074106 742.1817507198223 1910.9510196837318 746.5635824948405Q1918.3859987600533 750.9454142698588 1927.1213924276703 750.9454142698588ZM2053.940084961425 763.158003475071L2038.0524110416816 763.158003475071Q2028.8929691377723 763.158003475071 2022.193007004357 760.3027453507043Q2015.4647749885228 757.4474872263374 2011.9027698036691 750.6344455632445Q2008.3407646188155 743.8214039001516 2008.3407646188155 732.2307521081678L2008.3407646188155 732.2307521081678L2008.3407646188155 675.012510091155L1990.41765916487 675.012510091155L1990.41765916487 660.5666001748044L2008.3407646188155 660.5666001748044L2010.5740853299537 635.7456434105073L2025.4440434825967 635.7456434105073L2025.4440434825967 660.5666001748044L2055.155689905462 660.5666001748044L2055.155689905462 675.012510091155L2025.4440434825967 675.012510091155L2025.4440434825967 732.2307521081678Q2025.4440434825967 741.7859723659496 2029.3170173740643 745.1500883738669Q2033.1617213831125 748.5142043817841 2042.9431007002502 748.5142043817841L2042.9431007002502 748.5142043817841L2053.940084961425 748.5142043817841L2053.940084961425 763.158003475071ZM2094.648715645466 763.158003475071L2077.5454367816847 763.158003475071L2077.5454367816847 616.6069330125242L2094.648715645466 616.6069330125242L2094.648715645466 677.8677682155217L2094.648715645466 677.8677682155217Q2099.7372944809713 668.7083263116126 2108.981546032139 663.4218582991712Q2118.2540674657257 658.1353902867297 2129.2510517269 658.1353902867297L2129.2510517269 658.1353902867297Q2141.039592695821 658.1353902867297 2149.8032562458575 662.9130004156207Q2158.566919795894 667.6906105445115 2163.2314503951065 677.471989861649Q2167.9242508767393 687.2250992963673 2167.9242508767393 702.0950574490098L2167.9242508767393 702.0950574490098L2167.9242508767393 763.158003475071L2151.018861189895 763.158003475071L2151.018861189895 703.9325998062757Q2151.018861189895 688.468974122824 2144.5167882334154 680.6099468102105Q2137.9864453945174 672.7791893800166 2125.575967012369 672.7791893800166L2125.575967012369 672.7791893800166Q2116.8405733447516 672.7791893800166 2109.8013726223035 677.047941625357Q2102.790441782274 681.3449637531169 2098.71957871387 689.2605308305692Q2094.648715645466 697.2043677904411 2094.648715645466 708.8232894648444L2094.648715645466 708.8232894648444L2094.648715645466 763.158003475071ZM2239.5601329276833 765.5892133631457L2239.5601329276833 765.5892133631457Q2225.3121121882687 765.5892133631457 2214.1172387501574 758.8892512297307Q2202.922365312046 752.1610192138961 2196.6181815325044 740.0615095383619Q2190.3139977529618 727.933729980408 2190.3139977529618 711.8764367661474L2190.3139977529618 711.8764367661474Q2190.3139977529618 695.5929844925311 2196.505102002826 683.5782844642551Q2202.7244761351103 671.5635844359792 2214.032429102899 664.8353524201448Q2225.3121121882687 658.1353902867297 2239.9841811639753 658.1353902867297L2239.9841811639753 658.1353902867297Q2255.0237586111352 658.1353902867297 2265.624964518437 664.8353524201448Q2276.1979005433195 671.5635844359792 2281.795337262375 682.4474891674763Q2287.3927739814317 693.3313938989734 2287.3927739814317 706.3638096943503L2287.3927739814317 706.3638096943503Q2287.3927739814317 708.3992412285522 2287.3927739814317 710.6325619396906Q2287.3927739814317 712.8941525332484 2287.194884804495 715.7211407751957L2287.194884804495 715.7211407751957L2203.120254488983 715.7211407751957L2203.120254488983 702.4908358028824L2270.5156541770057 702.4908358028824Q2269.893716763778 688.468974122824 2261.2431327434188 680.5251371629522Q2252.5925487230597 672.5813002030803 2239.5601329276833 672.5813002030803L2239.5601329276833 672.5813002030803Q2231.022628437003 672.5813002030803 2223.4745698310035 676.5390837418065Q2215.9547811074235 680.5251371629522 2211.488139685147 688.1580054162098Q2206.993228380451 695.7908736694674 2206.993228380451 707.1836362845149L2206.993228380451 707.1836362845149L2206.993228380451 712.8941525332484Q2206.993228380451 725.5025200923333 2211.572949332405 734.0400245830141Q2216.1526702843594 742.6057989561143 2223.587649360681 746.8745512014548Q2231.022628437003 751.1433034467951 2239.5601329276833 751.1433034467951L2239.5601329276833 751.1433034467951Q2250.359228011922 751.1433034467951 2257.3701588519507 746.3656933179042Q2264.4093595744 741.5880831890133 2267.660396052639 733.2484678752688L2267.660396052639 733.2484678752688L2284.537515857064 733.2484678752688Q2281.9084167920537 742.6057989561143 2275.802122189448 749.8146189730799Q2269.695827586841 757.0517088724649 2260.621195330191 761.3204611178053Q2251.574832955959 765.5892133631457 2239.5601329276833 765.5892133631457ZM2348.8797682437844 765.5892133631457L2348.8797682437844 765.5892133631457Q2336.2431308022797 765.5892133631457 2326.6879105444987 761.3204611178053Q2317.1044204042973 757.0517088724649 2311.5069836852417 749.4188406192072Q2305.909546966186 741.7859723659496 2304.693942022149 731.4109255180031L2304.693942022149 731.4109255180031L2322.192999239802 731.4109255180031Q2323.2107150069032 736.6973935304445 2326.490021367562 741.1640349527213Q2329.741057845801 745.6589462574174 2335.338494564857 748.4011248521062Q2340.9359312839124 751.1433034467951 2349.077657420721 751.1433034467951L2349.077657420721 751.1433034467951Q2356.2016677904276 751.1433034467951 2360.866198389641 749.0230622653346Q2365.5589988712736 746.8745512014548 2367.905399112089 743.1994664869233Q2370.2517993529054 739.5526516548113 2370.2517993529054 735.2838994094709L2370.2517993529054 735.2838994094709Q2370.2517993529054 728.951445747509 2367.283461698861 725.7004092692696Q2364.3433939272354 722.4493727910303 2358.632877678502 720.5270207865061Q2352.9506313121883 718.5763988995625 2344.8089051753805 717.1629047785889L2344.8089051753805 717.1629047785889Q2338.0806731595458 715.9472998345516 2331.5786002030673 713.9118683003495Q2325.0482573641684 711.8764367661474 2319.959678528664 708.5123207582302Q2314.8710996931586 705.148204750313 2311.9310319215338 700.2575150917442Q2308.9626942674886 695.3668254331753 2308.9626942674886 688.2428150634682L2308.9626942674886 688.2428150634682Q2308.9626942674886 679.5074213958511 2313.5424152194437 672.6943797327582Q2318.122136171398 665.8530681872458 2326.490021367562 662.0083641781976Q2334.8296366813065 658.1353902867297 2346.0245101194178 658.1353902867297L2346.0245101194178 658.1353902867297Q2362.50585156997 658.1353902867297 2372.68300924098 666.0792272466016Q2382.8601669119907 673.9947943240539 2384.697709269257 689.0626416536329L2384.697709269257 689.0626416536329L2367.7923195824114 689.0626416536329Q2366.774603815311 681.3449637531169 2361.1771670962553 676.9631319780985Q2355.5797303771997 672.5813002030803 2345.826620942481 672.5813002030803L2345.826620942481 672.5813002030803Q2336.2431308022797 672.5813002030803 2331.267631496453 676.454274094548Q2326.2638623082066 680.3272479860159 2326.2638623082066 686.6314317655583L2326.2638623082066 686.6314317655583Q2326.2638623082066 690.7022948339624 2329.034310785314 693.8402517825239Q2331.776489380003 697.0064786135048 2337.260846569381 699.2397993246432Q2342.7734736411785 701.4731200357814 2350.4911515416943 702.9148840391746L2350.4911515416943 702.9148840391746Q2360.668309212705 704.7524263964403 2369.0079245264487 707.8055736977434Q2377.3758097226128 710.8587209990465 2382.5491982053763 716.8519360719747Q2387.7508565705593 722.8451511449028 2387.7508565705593 733.8421354060778L2387.7508565705593 733.8421354060778Q2387.7508565705593 743.425625546279 2382.9732464416684 750.5496359159862Q2378.167366430358 757.6736462856933 2369.4319727627408 761.6314298244195Q2360.668309212705 765.5892133631457 2348.8797682437844 765.5892133631457ZM2476.292128308348 763.158003475071L2458.369022854402 763.158003475071L2510.894464389783 620.6777960809284L2529.015459020665 620.6777960809284L2581.314741496689 763.158003475071L2563.193746865807 763.158003475071L2519.8560171167555 642.0498271900498L2519.8560171167555 642.0498271900498L2476.292128308348 763.158003475071ZM2556.6916739093285 726.5202358594344L2482.3984229109547 726.5202358594344L2487.2891125695232 712.6679934738927L2551.80098425076 712.6679934738927L2556.6916739093285 726.5202358594344ZM2618.7723357024906 763.158003475071L2601.6690568387103 763.158003475071L2601.6690568387103 660.5666001748044L2617.1326825221613 660.5666001748044L2617.952509112326 678.4897056287501L2617.952509112326 678.4897056287501Q2622.8431987708946 668.9062154885489 2631.889561145126 663.534937828849Q2640.9641934017773 658.1353902867297 2652.554845193761 658.1353902867297L2652.554845193761 658.1353902867297Q2664.569545222037 658.1353902867297 2673.3049388896534 662.9130004156207Q2682.06860243969 667.6906105445115 2686.9592920982586 677.3589103319712Q2691.849981756828 687.027210119431 2691.849981756828 701.8971682720735L2691.849981756828 701.8971682720735L2691.849981756828 763.158003475071L2674.746702893047 763.158003475071L2674.746702893047 703.7347106293394Q2674.746702893047 688.2428150634682 2667.933661229954 680.5251371629522Q2661.0923496844416 672.7791893800166 2648.681871302293 672.7791893800166L2648.681871302293 672.7791893800166Q2640.1443668116126 672.7791893800166 2633.416134795778 676.9631319780985Q2626.7161726623626 681.1188046937611 2622.730119241217 688.9778320063745Q2618.7723357024906 696.8085894365685 2618.7723357024906 708.3992412285522L2618.7723357024906 708.3992412285522L2618.7723357024906 763.158003475071ZM2763.881642161645 765.5892133631457L2763.881642161645 765.5892133631457Q2749.0399538914207 765.5892133631457 2737.732000923632 758.5782825231164Q2726.4523178382624 751.5673516830872 2720.3460232356565 739.3547624778749Q2714.2397286330506 727.1421732726627 2714.2397286330506 711.6502777067917L2714.2397286330506 711.6502777067917Q2714.2397286330506 696.18665202334 2720.3460232356565 684.0871423478058Q2726.4523178382624 671.9593627898519 2737.732000923632 665.0615114795005Q2749.0399538914207 658.1353902867297 2764.107801221 658.1353902867297L2764.107801221 658.1353902867297Q2776.5182796031486 658.1353902867297 2785.9886902136723 663.2239691222348Q2795.4308309417756 668.31254795774 2800.745568836637 677.471989861649L2800.745568836637 677.471989861649L2800.745568836637 616.6069330125242L2817.820577817998 616.6069330125242L2817.820577817998 763.158003475071L2802.356952134547 763.158003475071L2800.745568836637 746.2526137882263L2800.745568836637 746.2526137882263Q2797.4662624759785 751.3411926237314 2792.377683640473 755.7230243987497Q2787.289104804968 760.104856173768 2780.278173964938 762.8470347684569Q2773.2672431249093 765.5892133631457 2763.881642161645 765.5892133631457ZM2765.71918451891 750.7475250929225L2765.71918451891 750.7475250929225Q2775.8963421899207 750.7475250929225 2783.642289972856 745.8568354343537Q2791.3599678733726 740.966145775785 2795.74179964839 732.3155617554262Q2800.1236314234084 723.6649777350676 2800.1236314234084 711.8764367661474L2800.1236314234084 711.8764367661474Q2800.1236314234084 700.2575150917442 2795.74179964839 691.5221214241271Q2791.3599678733726 682.7584578740905 2783.642289972856 677.8677682155217Q2775.8963421899207 672.977078556953 2765.71918451891 672.977078556953L2765.71918451891 672.977078556953Q2755.966075084192 672.977078556953 2748.1070477715784 677.8677682155217Q2740.276290341385 682.7584578740905 2736.0075380960443 691.5221214241271Q2731.7387858507036 700.2575150917442 2731.7387858507036 711.8764367661474L2731.7387858507036 711.8764367661474Q2731.7387858507036 723.6649777350676 2736.0075380960443 732.3155617554262Q2740.276290341385 740.966145775785 2748.1070477715784 745.8568354343537Q2755.966075084192 750.7475250929225 2765.71918451891 750.7475250929225ZM2951.7632807214604 763.158003475071L2934.660001857679 763.158003475071L2934.660001857679 634.7279276434062L2892.113828816373 634.7279276434062L2892.113828816373 620.6777960809284L2994.3094537627667 620.6777960809284L2994.3094537627667 634.7279276434062L2951.7632807214604 634.7279276434062L2951.7632807214604 763.158003475071ZM3019.9502371172284 763.158003475071L3002.846958253447 763.158003475071L3002.846958253447 660.5666001748044L3018.310583936899 660.5666001748044L3019.554458763356 680.10108892666L3019.554458763356 680.10108892666Q3023.003384418532 673.2032376163087 3028.4029319606507 668.31254795774Q3033.8024795027704 663.4218582991712 3041.435347756028 660.7644893517406Q3049.0682160092856 658.1353902867297 3058.8213254440034 658.1353902867297L3058.8213254440034 658.1353902867297L3058.8213254440034 676.030225858256L3052.5171416644616 676.030225858256Q3046.015068707982 676.030225858256 3040.106663282312 677.7829585682633Q3034.198257856643 679.5074213958511 3029.618536904688 683.3803952873188Q3025.038815952734 687.2250992963673 3022.4945265349816 693.8402517825239Q3019.9502371172284 700.4554042686805 3019.9502371172284 710.2367835858181L3019.9502371172284 710.2367835858181L3019.9502371172284 763.158003475071ZM3119.2906039392556 765.5892133631457L3119.2906039392556 765.5892133631457Q3105.042583199842 765.5892133631457 3093.8477097617306 758.8892512297307Q3082.6528363236193 752.1610192138961 3076.3203826616573 740.0615095383619Q3070.0161988821146 727.933729980408 3070.0161988821146 711.8764367661474L3070.0161988821146 711.8764367661474Q3070.0161988821146 695.5929844925311 3076.235573014399 683.5782844642551Q3082.426677264263 671.5635844359792 3093.734630232052 664.8353524201448Q3105.042583199842 658.1353902867297 3119.686382293128 658.1353902867297L3119.686382293128 658.1353902867297Q3134.7542296227075 658.1353902867297 3145.32716564759 664.8353524201448Q3155.9283715548927 671.5635844359792 3161.5258082739483 682.4474891674763Q3167.123244993004 693.3313938989734 3167.123244993004 706.3638096943503L3167.123244993004 706.3638096943503Q3167.123244993004 708.3992412285522 3167.123244993004 710.6325619396906Q3167.123244993004 712.8941525332484 3166.8970859336478 715.7211407751957L3166.8970859336478 715.7211407751957L3082.850725500555 715.7211407751957L3082.850725500555 702.4908358028824L3150.2178553061585 702.4908358028824Q3149.5959178929306 688.468974122824 3140.9453338725716 680.5251371629522Q3132.2947498522135 672.5813002030803 3119.2906039392556 672.5813002030803L3119.2906039392556 672.5813002030803Q3110.7248295661557 672.5813002030803 3103.2050408425757 676.5390837418065Q3095.6569822365764 680.5251371629522 3091.1903408143 688.1580054162098Q3086.7236993920233 695.7908736694674 3086.7236993920233 707.1836362845149L3086.7236993920233 707.1836362845149L3086.7236993920233 712.8941525332484Q3086.7236993920233 725.5025200923333 3091.3034203439775 734.0400245830141Q3095.8831412959325 742.6057989561143 3103.289850489834 746.8745512014548Q3110.7248295661557 751.1433034467951 3119.2906039392556 751.1433034467951L3119.2906039392556 751.1433034467951Q3130.0614291410748 751.1433034467951 3137.100629863524 746.3656933179042Q3144.1115607035526 741.5880831890133 3147.362597181792 733.2484678752688L3147.362597181792 733.2484678752688L3164.2679868686373 733.2484678752688Q3161.6106179212065 742.6057989561143 3155.5043233186007 749.8146189730799Q3149.3980287159948 757.0517088724649 3140.351666341763 761.3204611178053Q3131.277034085112 765.5892133631457 3119.2906039392556 765.5892133631457ZM3207.0120490868794 763.158003475071L3189.908770223099 763.158003475071L3189.908770223099 660.5666001748044L3205.37239590655 660.5666001748044L3206.1922224967147 678.4897056287501L3206.1922224967147 678.4897056287501Q3211.0829121552833 668.9062154885489 3220.129274529515 663.534937828849Q3229.203906786166 658.1353902867297 3240.79455857815 658.1353902867297L3240.79455857815 658.1353902867297Q3252.809258606425 658.1353902867297 3261.544652274043 662.9130004156207Q3270.3083158240797 667.6906105445115 3275.1990054826483 677.3589103319712Q3280.089695141217 687.027210119431 3280.089695141217 701.8971682720735L3280.089695141217 701.8971682720735L3280.089695141217 763.158003475071L3262.9864162774356 763.158003475071L3262.9864162774356 703.7347106293394Q3262.9864162774356 688.2428150634682 3256.1733746143427 680.5251371629522Q3249.3320630688313 672.7791893800166 3236.921584686682 672.7791893800166L3236.921584686682 672.7791893800166Q3228.3840801960005 672.7791893800166 3221.6558481801667 676.9631319780985Q3214.9558860467514 681.1188046937611 3210.9698326256057 688.9778320063745Q3207.0120490868794 696.8085894365685 3207.0120490868794 708.3992412285522L3207.0120490868794 708.3992412285522L3207.0120490868794 763.158003475071ZM3352.1213555460336 765.5892133631457L3352.1213555460336 765.5892133631457Q3337.2796672758095 765.5892133631457 3325.9717143080206 758.5782825231164Q3314.692031222651 751.5673516830872 3308.5857366200453 739.3547624778749Q3302.4794420174394 727.1421732726627 3302.4794420174394 711.6502777067917L3302.4794420174394 711.6502777067917Q3302.4794420174394 696.18665202334 3308.5857366200453 684.0871423478058Q3314.692031222651 671.9593627898519 3325.9717143080206 665.0615114795005Q3337.2796672758095 658.1353902867297 3352.3475146053897 658.1353902867297L3352.3475146053897 658.1353902867297Q3364.7579929875374 658.1353902867297 3374.228403598061 663.2239691222348Q3383.6705443261653 668.31254795774 3388.985282221026 677.471989861649L3388.985282221026 677.471989861649L3388.985282221026 616.6069330125242L3406.060291202387 616.6069330125242L3406.060291202387 763.158003475071L3390.596665518936 763.158003475071L3388.985282221026 746.2526137882263L3388.985282221026 746.2526137882263Q3385.7059758603664 751.3411926237314 3380.617397024862 755.7230243987497Q3375.5288181893575 760.104856173768 3368.517887349328 762.8470347684569Q3361.506956509298 765.5892133631457 3352.1213555460336 765.5892133631457ZM3353.9588979032987 750.7475250929225L3353.9588979032987 750.7475250929225Q3364.1360555743095 750.7475250929225 3371.8820033572447 745.8568354343537Q3379.5996812577614 740.966145775785 3383.9815130327797 732.3155617554262Q3388.363344807798 723.6649777350676 3388.363344807798 711.8764367661474L3388.363344807798 711.8764367661474Q3388.363344807798 700.2575150917442 3383.9815130327797 691.5221214241271Q3379.5996812577614 682.7584578740905 3371.8820033572447 677.8677682155217Q3364.1360555743095 672.977078556953 3353.9588979032987 672.977078556953L3353.9588979032987 672.977078556953Q3344.205788468581 672.977078556953 3336.346761155968 677.8677682155217Q3328.5160037257738 682.7584578740905 3324.247251480434 691.5221214241271Q3319.9784992350924 700.2575150917442 3319.9784992350924 711.8764367661474L3319.9784992350924 711.8764367661474Q3319.9784992350924 723.6649777350676 3324.247251480434 732.3155617554262Q3328.5160037257738 740.966145775785 3336.346761155968 745.8568354343537Q3344.205788468581 750.7475250929225 3353.9588979032987 750.7475250929225ZM3473.0316426541185 765.5892133631457L3473.0316426541185 765.5892133631457Q3460.423275095033 765.5892133631457 3450.839784954832 761.3204611178053Q3441.284564697051 757.0517088724649 3435.6871279779953 749.4188406192072Q3430.0896912589396 741.7859723659496 3428.8740863149023 731.4109255180031L3428.8740863149023 731.4109255180031L3446.3731435325553 731.4109255180031Q3447.3908592996568 736.6973935304445 3450.641895777896 741.1640349527213Q3453.8929322561353 745.6589462574174 3459.490368975191 748.4011248521062Q3465.0878056942465 751.1433034467951 3473.2295318310544 751.1433034467951L3473.2295318310544 751.1433034467951Q3480.3535422007617 751.1433034467951 3485.0463426823944 749.0230622653346Q3489.739143164027 746.8745512014548 3492.057273522423 743.1994664869233Q3494.4036737632396 739.5526516548113 3494.4036737632396 735.2838994094709L3494.4036737632396 735.2838994094709Q3494.4036737632396 728.951445747509 3491.4636059916147 725.7004092692696Q3488.4952683375705 722.4493727910303 3482.8130219712557 720.5270207865061Q3477.1025057225224 718.5763988995625 3468.9607795857146 717.1629047785889L3468.9607795857146 717.1629047785889Q3462.2608174522993 715.9472998345516 3455.7304746134014 713.9118683003495Q3449.228401656922 711.8764367661474 3444.1398228214175 708.5123207582302Q3439.051243985912 705.148204750313 3436.082906331867 700.2575150917442Q3433.142838560243 695.3668254331753 3433.142838560243 688.2428150634682L3433.142838560243 688.2428150634682Q3433.142838560243 679.5074213958511 3437.722559512197 672.6943797327582Q3442.3022804641514 665.8530681872458 3450.641895777896 662.0083641781976Q3458.9815110916406 658.1353902867297 3470.176384529751 658.1353902867297L3470.176384529751 658.1353902867297Q3486.6859958627238 658.1353902867297 3496.8631535337336 666.0792272466016Q3507.0403112047443 673.9947943240539 3508.849583679591 689.0626416536329L3508.849583679591 689.0626416536329L3491.972463875165 689.0626416536329Q3490.9547481080645 681.3449637531169 3485.357311389008 676.9631319780985Q3479.759874669953 672.5813002030803 3469.978495352815 672.5813002030803L3469.978495352815 672.5813002030803Q3460.423275095033 672.5813002030803 3455.419505906787 676.454274094548Q3450.44400660096 680.3272479860159 3450.44400660096 686.6314317655583L3450.44400660096 686.6314317655583Q3450.44400660096 690.7022948339624 3453.1861851956482 693.8402517825239Q3455.9283637903372 697.0064786135048 3461.4409908621346 699.2397993246432Q3466.9253480515117 701.4731200357814 3474.671295834448 702.9148840391746L3474.671295834448 702.9148840391746Q3484.8484535054577 704.7524263964403 3493.1880688192023 707.8055736977434Q3501.527684132947 710.8587209990465 3506.72934249813 716.8519360719747Q3511.9027309808935 722.8451511449028 3511.9027309808935 733.8421354060778L3511.9027309808935 733.8421354060778Q3511.9027309808935 743.425625546279 3507.1251208520025 750.5496359159862Q3502.3475107231116 757.6736462856933 3493.583847173075 761.6314298244195Q3484.8484535054577 765.5892133631457 3473.0316426541185 765.5892133631457Z " fill="#222222" transform="matrix(0.24915268717515757,0,0,0.24915268717515757,0,127.93783976595452)"/></g></svg>